<?xml version="1.0" encoding="UTF-8" standalone="no" ?>
<!DOCTYPE svg PUBLIC "-//W3C//DTD SVG 1.1//EN" "http://www.w3.org/Graphics/SVG/1.1/DTD/svg11.dtd">
<svg xmlns="http://www.w3.org/2000/svg" xmlns:xlink="http://www.w3.org/1999/xlink" version="1.1" width="1080" height="1080" viewBox="0 0 1080 1080" xml:space="preserve">
<desc>Created with Fabric.js 5.2.4</desc>
<defs>
</defs>
<rect x="0" y="0" width="100%" height="100%" fill="transparent"></rect>
<g transform="matrix(1 0 0 1 540 540)" id="74bf52dd-7b4c-4fd7-8a85-baaef451e1f7"  >
</g>
<g transform="matrix(1 0 0 1 540 540)" id="e580bfec-8af5-4394-84d1-6f956eab0031"  >
<rect style="stroke: none; stroke-width: 1; stroke-dasharray: none; stroke-linecap: butt; stroke-dashoffset: 0; stroke-linejoin: miter; stroke-miterlimit: 4; fill: rgb(255,255,255); fill-rule: nonzero; opacity: 1;" vector-effect="non-scaling-stroke"  x="-540" y="-540" rx="0" ry="0" width="1080" height="1080" />
</g>
<g transform="matrix(3.44 0 0 3.44 538.16 538.59)"  >
<g style="" vector-effect="non-scaling-stroke"   >
		<g transform="matrix(0.13 0 0 -0.13 0 0)"  >
<path style="stroke: none; stroke-width: 1; stroke-dasharray: none; stroke-linecap: butt; stroke-dashoffset: 0; stroke-linejoin: miter; stroke-miterlimit: 4; fill: rgb(0,0,0); fill-rule: nonzero; opacity: 1;" vector-effect="non-scaling-stroke"  transform=" translate(-2240.47, -2245.3)" d="M 2145 3389 C 1876 3367 1631 3255 1438 3064 C 1366 2993 1250 2845 1250 2825 C 1250 2822 1238 2801 1224 2778 C 1209 2755 1194 2725 1190 2711 C 1185 2697 1172 2660 1161 2630 C 1114 2508 1098 2412 1097 2255 C 1096 2100 1105 2037 1151 1889 C 1176 1807 1241 1676 1303 1584 C 1358 1500 1495 1363 1587 1299 C 1663 1247 1799 1175 1844 1164 C 1860 1160 1885 1151 1899 1144 C 1913 1136 1937 1130 1952 1130 C 1967 1130 2001 1123 2027 1114 C 2089 1093 2347 1090 2435 1109 C 2468 1116 2515 1126 2540 1130 C 2581 1137 2692 1179 2730 1200 C 2738 1205 2763 1219 2785 1230 C 2807 1242 2831 1259 2838 1268 C 2846 1278 2867 1284 2898 1285 C 2970 1287 3020 1324 3020 1377 C 3020 1392 3045 1427 3088 1474 C 3291 1692 3385 1944 3384 2265 C 3383 2361 3378 2430 3365 2485 C 3341 2592 3336 2600 3294 2600 C 3238 2600 3233 2569 3271 2450 C 3288 2396 3300 2341 3298 2328 C 3293 2289 3266 2296 3230 2347 C 3181 2416 3112 2488 3063 2522 C 3039 2538 3020 2556 3020 2561 C 3020 2567 3034 2584 3052 2598 C 3069 2613 3098 2640 3117 2658 C 3138 2678 3161 2690 3178 2690 C 3229 2690 3289 2747 3290 2796 C 3290 2830 3242 2887 3204 2896 C 3150 2910 3090 2859 3090 2800 C 3090 2767 3081 2753 3022 2691 C 2985 2652 2950 2620 2944 2620 C 2937 2620 2927 2627 2919 2636 C 2903 2656 2757 2741 2710 2758 C 2611 2794 2586 2801 2533 2808 C 2454 2818 2450 2841 2518 2892 C 2545 2913 2615 2979 2673 3040 C 2732 3100 2784 3150 2789 3150 C 2804 3150 2819 3125 2829 3081 C 2840 3030 2859 3008 2911 2982 C 2948 2964 2951 2964 2988 2980 C 3045 3006 3080 3056 3080 3112 C 3080 3150 3074 3163 3045 3193 C 3014 3225 3003 3230 2965 3230 C 2941 3230 2910 3225 2896 3219 C 2875 3209 2863 3213 2803 3247 C 2765 3269 2725 3289 2715 3292 C 2704 3296 2670 3308 2640 3320 C 2553 3354 2447 3379 2363 3385 C 2320 3388 2276 3392 2265 3394 C 2254 3395 2200 3393 2145 3389 z M 2460 3267 C 2580 3241 2685 3206 2687 3190 C 2688 3182 2670 3160 2647 3142 C 2624 3123 2547 3051 2475 2980 L 2345 2852 L 2258 2853 C 2211 2854 2168 2858 2165 2862 C 2161 2866 2157 2962 2156 3076 C 2155 3261 2157 3283 2172 3289 C 2197 3298 2376 3285 2460 3267 z M 2057 3266 C 2061 3258 2064 3159 2062 3046 L 2059 2841 L 2027 2835 C 1927 2816 1890 2805 1843 2783 C 1814 2769 1785 2760 1779 2762 C 1770 2765 1767 2818 1767 2970 C 1768 3201 1766 3193 1851 3220 C 1875 3227 1927 3244 1965 3256 C 2048 3284 2047 3284 2057 3266 z M 1674 2914 C 1673 2801 1671 2707 1669 2706 C 1667 2704 1645 2692 1620 2680 C 1513 2626 1328 2459 1252 2347 C 1231 2315 1214 2300 1202 2302 C 1169 2308 1173 2329 1247 2565 C 1305 2751 1386 2876 1553 3037 C 1609 3091 1655 3128 1663 3125 C 1673 3120 1676 3078 1674 2914 z M 2386 2741 C 2397 2736 2430 2720 2460 2706 C 2596 2645 2709 2473 2724 2305 C 2739 2146 2672 1975 2552 1869 C 2458 1786 2368 1757 2222 1762 C 2120 1765 2109 1767 2037 1803 C 1837 1902 1727 2113 1759 2338 C 1774 2439 1837 2556 1914 2627 C 1987 2694 2073 2741 2140 2752 C 2200 2761 2363 2754 2386 2741 z M 1880 2688 C 1880 2681 1854 2647 1822 2613 C 1679 2461 1644 2264 1721 2050 C 1741 1993 1779 1939 1847 1872 C 1905 1814 1917 1790 1888 1790 C 1847 1790 1608 1938 1495 2033 C 1399 2115 1280 2232 1280 2246 C 1280 2256 1368 2349 1462 2435 C 1534 2503 1646 2583 1800 2678 C 1839 2702 1880 2707 1880 2688 z M 2702 2661 C 2775 2622 2915 2526 2975 2474 C 3078 2386 3200 2263 3200 2248 C 3200 2218 2856 1910 2824 1910 C 2820 1910 2809 1904 2801 1896 C 2792 1888 2745 1861 2697 1836 C 2613 1792 2570 1780 2570 1799 C 2570 1803 2603 1841 2643 1882 C 2729 1971 2764 2036 2790 2164 C 2807 2242 2808 2267 2799 2311 C 2793 2341 2785 2382 2780 2402 C 2768 2462 2724 2541 2665 2608 C 2635 2643 2610 2675 2610 2681 C 2610 2698 2650 2690 2702 2661 z M 1216 2192 C 1222 2188 1241 2165 1259 2140 C 1336 2033 1493 1893 1603 1835 C 1626 1822 1646 1805 1648 1797 C 1652 1778 1446 1570 1432 1579 C 1398 1602 1270 1834 1249 1915 C 1244 1931 1231 1979 1219 2020 C 1180 2160 1178 2170 1184 2185 C 1190 2201 1199 2204 1216 2192 z M 3298 2166 C 3300 2150 3292 2108 3281 2071 C 3270 2035 3249 1967 3234 1920 C 3195 1792 3158 1721 3065 1596 C 3006 1516 2985 1505 2946 1535 C 2934 1544 2913 1548 2886 1544 C 2846 1540 2843 1542 2756 1625 C 2699 1679 2670 1715 2673 1724 C 2676 1732 2701 1745 2727 1753 C 2864 1794 3096 1973 3214 2130 C 3274 2210 3292 2218 3298 2166 z M 1825 1724 C 1866 1708 1956 1686 2023 1675 L 2060 1669 L 2060 1583 L 2060 1497 L 1958 1391 C 1902 1333 1848 1284 1839 1282 C 1829 1280 1791 1295 1753 1315 C 1676 1357 1500 1485 1500 1500 C 1500 1506 1551 1561 1613 1624 C 1736 1748 1747 1753 1825 1724 z M 2631 1628 C 2666 1588 2702 1550 2710 1544 C 2768 1500 2785 1475 2786 1436 C 2786 1413 2790 1383 2794 1369 C 2801 1344 2798 1340 2706 1296 C 2653 1271 2604 1250 2596 1250 C 2588 1250 2557 1240 2526 1229 C 2496 1217 2465 1210 2458 1213 C 2448 1216 2445 1268 2445 1445 L 2445 1673 L 2485 1686 C 2557 1708 2564 1705 2631 1628 z M 2245 1657 C 2251 1657 2271 1660 2290 1663 C 2352 1675 2352 1675 2352 1434 C 2351 1313 2351 1209 2351 1202 C 2350 1185 2162 1191 2030 1212 C 1928 1228 1920 1241 1982 1293 C 2006 1313 2053 1356 2088 1388 L 2151 1447 L 2149 1547 C 2148 1603 2151 1653 2155 1659 C 2159 1667 2175 1668 2198 1664 C 2218 1660 2240 1657 2245 1657 z" stroke-linecap="round" />
</g>
		<g transform="matrix(0.13 0 0 -0.13 0.06 -2.31)"  >
<path style="stroke: none; stroke-width: 1; stroke-dasharray: none; stroke-linecap: butt; stroke-dashoffset: 0; stroke-linejoin: miter; stroke-miterlimit: 4; fill: rgb(0,0,0); fill-rule: nonzero; opacity: 1;" vector-effect="non-scaling-stroke"  transform=" translate(-2240.88, -2262.65)" d="M 2180 2551 C 2144 2542 2101 2525 2083 2512 C 2002 2454 1940 2346 1940 2261 C 1940 2121 2058 1982 2192 1965 C 2289 1953 2344 1966 2413 2019 C 2560 2130 2585 2322 2468 2450 C 2424 2498 2365 2537 2319 2548 C 2293 2555 2266 2562 2259 2564 C 2251 2566 2216 2561 2180 2551 z M 2318 2431 C 2401 2389 2436 2327 2428 2236 C 2425 2199 2416 2173 2397 2148 C 2366 2108 2284 2060 2247 2060 C 2168 2060 2066 2147 2055 2225 C 2042 2306 2089 2393 2165 2433 C 2206 2455 2273 2454 2318 2431 z" stroke-linecap="round" />
</g>
</g>
</g>
</svg>