<?xml version="1.0"?>
<svg width="100" height="100" xmlns="http://www.w3.org/2000/svg" xmlns:svg="http://www.w3.org/2000/svg" preserveAspectRatio="xMidYMid meet" version="1.0">
 <metadata>Created by potrace 1.10, written by Peter Selinger 2001-2011</metadata>
 <g class="layer">
  <title>Layer 1</title>
  <g fill="#000000" id="svg_1" transform="translate(114 132) translate(1.73272 0.683991) matrix(0.0419915 0 0 -0.0413996 -44.9966 141.61)">
   <path d="m2145,3389c-269,-22 -514,-134 -707,-325c-72,-71 -188,-219 -188,-239c0,-3 -12,-24 -26,-47c-15,-23 -30,-53 -34,-67c-5,-14 -18,-51 -29,-81c-47,-122 -63,-218 -64,-375c-1,-155 8,-218 54,-366c25,-82 90,-213 152,-305c55,-84 192,-221 284,-285c76,-52 212,-124 257,-135c16,-4 41,-13 55,-20c14,-8 38,-14 53,-14c15,0 49,-7 75,-16c62,-21 320,-24 408,-5c33,7 80,17 105,21c41,7 152,49 190,70c8,5 33,19 55,30c22,12 46,29 53,38c8,10 29,16 60,17c72,2 122,39 122,92c0,15 25,50 68,97c203,218 297,470 296,791c-1,96 -6,165 -19,220c-24,107 -29,115 -71,115c-56,0 -61,-31 -23,-150c17,-54 29,-109 27,-122c-5,-39 -32,-32 -68,19c-49,69 -118,141 -167,175c-24,16 -43,34 -43,39c0,6 14,23 32,37c17,15 46,42 65,60c21,20 44,32 61,32c51,0 111,57 112,106c0,34 -48,91 -86,100c-54,14 -114,-37 -114,-96c0,-33 -9,-47 -68,-109c-37,-39 -72,-71 -78,-71c-7,0 -17,7 -25,16c-16,20 -162,105 -209,122c-99,36 -124,43 -177,50c-79,10 -83,33 -15,84c27,21 97,87 155,148c59,60 111,110 116,110c15,0 30,-25 40,-69c11,-51 30,-73 82,-99c37,-18 40,-18 77,-2c57,26 92,76 92,132c0,38 -6,51 -35,81c-31,32 -42,37 -80,37c-24,0 -55,-5 -69,-11c-21,-10 -33,-6 -93,28c-38,22 -78,42 -88,45c-11,4 -45,16 -75,28c-87,34 -193,59 -277,65c-43,3 -87,7 -98,9c-11,1 -65,-1 -120,-5zm315,-122c120,-26 225,-61 227,-77c1,-8 -17,-30 -40,-48c-23,-19 -100,-91 -172,-162l-130,-128l-87,1c-47,1 -90,5 -93,9c-4,4 -8,100 -9,214c-1,185 1,207 16,213c25,9 204,-4 288,-22zm-403,-1c4,-8 7,-107 5,-220l-3,-205l-32,-6c-100,-19 -137,-30 -184,-52c-29,-14 -58,-23 -64,-21c-9,3 -12,56 -12,208c1,231 -1,223 84,250c24,7 76,24 114,36c83,28 82,28 92,10zm-383,-352c-1,-113 -3,-207 -5,-208c-2,-2 -24,-14 -49,-26c-107,-54 -292,-221 -368,-333c-21,-32 -38,-47 -50,-45c-33,6 -29,27 45,263c58,186 139,311 306,472c56,54 102,91 110,88c10,-5 13,-47 11,-211zm712,-173c11,-5 44,-21 74,-35c136,-61 249,-233 264,-401c15,-159 -52,-330 -172,-436c-94,-83 -184,-112 -330,-107c-102,3 -113,5 -185,41c-200,99 -310,310 -278,535c15,101 78,218 155,289c73,67 159,114 226,125c60,9 223,2 246,-11zm-506,-53c0,-7 -26,-41 -58,-75c-143,-152 -178,-349 -101,-563c20,-57 58,-111 126,-178c58,-58 70,-82 41,-82c-41,0 -280,148 -393,243c-96,82 -215,199 -215,213c0,10 88,103 182,189c72,68 184,148 338,243c39,24 80,29 80,10zm822,-27c73,-39 213,-135 273,-187c103,-88 225,-211 225,-226c0,-30 -344,-338 -376,-338c-4,0 -15,-6 -23,-14c-9,-8 -56,-35 -104,-60c-84,-44 -127,-56 -127,-37c0,4 33,42 73,83c86,89 121,154 147,282c17,78 18,103 9,147c-6,30 -14,71 -19,91c-12,60 -56,139 -115,206c-30,35 -55,67 -55,73c0,17 40,9 92,-20zm-1486,-469c6,-4 25,-27 43,-52c77,-107 234,-247 344,-305c23,-13 43,-30 45,-38c4,-19 -202,-227 -216,-218c-34,23 -162,255 -183,336c-5,16 -18,64 -30,105c-39,140 -41,150 -35,165c6,16 15,19 32,7zm2082,-26c2,-16 -6,-58 -17,-95c-11,-36 -32,-104 -47,-151c-39,-128 -76,-199 -169,-324c-59,-80 -80,-91 -119,-61c-12,9 -33,13 -60,9c-40,-4 -43,-2 -130,81c-57,54 -86,90 -83,99c3,8 28,21 54,29c137,41 369,220 487,377c60,80 78,88 84,36zm-1473,-442c41,-16 131,-38 198,-49l37,-6l0,-86l0,-86l-102,-106c-56,-58 -110,-107 -119,-109c-10,-2 -48,13 -86,33c-77,42 -253,170 -253,185c0,6 51,61 113,124c123,124 134,129 212,100zm806,-96c35,-40 71,-78 79,-84c58,-44 75,-69 76,-108c0,-23 4,-53 8,-67c7,-25 4,-29 -88,-73c-53,-25 -102,-46 -110,-46c-8,0 -39,-10 -70,-21c-30,-12 -61,-19 -68,-16c-10,3 -13,55 -13,232l0,228l40,13c72,22 79,19 146,-58zm-386,29c6,0 26,3 45,6c62,12 62,12 62,-229c-1,-121 -1,-225 -1,-232c-1,-17 -189,-11 -321,10c-102,16 -110,29 -48,81c24,20 71,63 106,95l63,59l-2,100c-1,56 2,106 6,112c4,8 20,9 43,5c20,-4 42,-7 47,-7z" id="svg_2"/>
   <path d="m2180,2551c-36,-9 -79,-26 -97,-39c-81,-58 -143,-166 -143,-251c0,-140 118,-279 252,-296c97,-12 152,1 221,54c147,111 172,303 55,431c-44,48 -103,87 -149,98c-26,7 -53,14 -60,16c-8,2 -43,-3 -79,-13zm138,-120c83,-42 118,-104 110,-195c-3,-37 -12,-63 -31,-88c-31,-40 -113,-88 -150,-88c-79,0 -181,87 -192,165c-13,81 34,168 110,208c41,22 108,21 153,-2z" id="svg_3"/>
  </g>
 </g>
</svg>