<?xml version="1.0" standalone="no"?>
<!DOCTYPE svg PUBLIC "-//W3C//DTD SVG 20010904//EN"
 "http://www.w3.org/TR/2001/REC-SVG-20010904/DTD/svg10.dtd">
<svg version="1.0" xmlns="http://www.w3.org/2000/svg"
 width="450.000000pt" height="450.000000pt" viewBox="0 0 450.000000 450.000000"
 preserveAspectRatio="xMidYMid meet">
<metadata>
Created by potrace 1.10, written by Peter Selinger 2001-2011
</metadata>
<g transform="translate(0.000000,450.000000) scale(0.100000,-0.100000)"
fill="#000000" stroke="none">
<path d="M2145 3389 c-269 -22 -514 -134 -707 -325 -72 -71 -188 -219 -188
-239 0 -3 -12 -24 -26 -47 -15 -23 -30 -53 -34 -67 -5 -14 -18 -51 -29 -81
-47 -122 -63 -218 -64 -375 -1 -155 8 -218 54 -366 25 -82 90 -213 152 -305
55 -84 192 -221 284 -285 76 -52 212 -124 257 -135 16 -4 41 -13 55 -20 14 -8
38 -14 53 -14 15 0 49 -7 75 -16 62 -21 320 -24 408 -5 33 7 80 17 105 21 41
7 152 49 190 70 8 5 33 19 55 30 22 12 46 29 53 38 8 10 29 16 60 17 72 2 122
39 122 92 0 15 25 50 68 97 203 218 297 470 296 791 -1 96 -6 165 -19 220 -24
107 -29 115 -71 115 -56 0 -61 -31 -23 -150 17 -54 29 -109 27 -122 -5 -39
-32 -32 -68 19 -49 69 -118 141 -167 175 -24 16 -43 34 -43 39 0 6 14 23 32
37 17 15 46 42 65 60 21 20 44 32 61 32 51 0 111 57 112 106 0 34 -48 91 -86
100 -54 14 -114 -37 -114 -96 0 -33 -9 -47 -68 -109 -37 -39 -72 -71 -78 -71
-7 0 -17 7 -25 16 -16 20 -162 105 -209 122 -99 36 -124 43 -177 50 -79 10
-83 33 -15 84 27 21 97 87 155 148 59 60 111 110 116 110 15 0 30 -25 40 -69
11 -51 30 -73 82 -99 37 -18 40 -18 77 -2 57 26 92 76 92 132 0 38 -6 51 -35
81 -31 32 -42 37 -80 37 -24 0 -55 -5 -69 -11 -21 -10 -33 -6 -93 28 -38 22
-78 42 -88 45 -11 4 -45 16 -75 28 -87 34 -193 59 -277 65 -43 3 -87 7 -98 9
-11 1 -65 -1 -120 -5z m315 -122 c120 -26 225 -61 227 -77 1 -8 -17 -30 -40
-48 -23 -19 -100 -91 -172 -162 l-130 -128 -87 1 c-47 1 -90 5 -93 9 -4 4 -8
100 -9 214 -1 185 1 207 16 213 25 9 204 -4 288 -22z m-403 -1 c4 -8 7 -107 5
-220 l-3 -205 -32 -6 c-100 -19 -137 -30 -184 -52 -29 -14 -58 -23 -64 -21 -9
3 -12 56 -12 208 1 231 -1 223 84 250 24 7 76 24 114 36 83 28 82 28 92 10z
m-383 -352 c-1 -113 -3 -207 -5 -208 -2 -2 -24 -14 -49 -26 -107 -54 -292
-221 -368 -333 -21 -32 -38 -47 -50 -45 -33 6 -29 27 45 263 58 186 139 311
306 472 56 54 102 91 110 88 10 -5 13 -47 11 -211z m712 -173 c11 -5 44 -21
74 -35 136 -61 249 -233 264 -401 15 -159 -52 -330 -172 -436 -94 -83 -184
-112 -330 -107 -102 3 -113 5 -185 41 -200 99 -310 310 -278 535 15 101 78
218 155 289 73 67 159 114 226 125 60 9 223 2 246 -11z m-506 -53 c0 -7 -26
-41 -58 -75 -143 -152 -178 -349 -101 -563 20 -57 58 -111 126 -178 58 -58 70
-82 41 -82 -41 0 -280 148 -393 243 -96 82 -215 199 -215 213 0 10 88 103 182
189 72 68 184 148 338 243 39 24 80 29 80 10z m822 -27 c73 -39 213 -135 273
-187 103 -88 225 -211 225 -226 0 -30 -344 -338 -376 -338 -4 0 -15 -6 -23
-14 -9 -8 -56 -35 -104 -60 -84 -44 -127 -56 -127 -37 0 4 33 42 73 83 86 89
121 154 147 282 17 78 18 103 9 147 -6 30 -14 71 -19 91 -12 60 -56 139 -115
206 -30 35 -55 67 -55 73 0 17 40 9 92 -20z m-1486 -469 c6 -4 25 -27 43 -52
77 -107 234 -247 344 -305 23 -13 43 -30 45 -38 4 -19 -202 -227 -216 -218
-34 23 -162 255 -183 336 -5 16 -18 64 -30 105 -39 140 -41 150 -35 165 6 16
15 19 32 7z m2082 -26 c2 -16 -6 -58 -17 -95 -11 -36 -32 -104 -47 -151 -39
-128 -76 -199 -169 -324 -59 -80 -80 -91 -119 -61 -12 9 -33 13 -60 9 -40 -4
-43 -2 -130 81 -57 54 -86 90 -83 99 3 8 28 21 54 29 137 41 369 220 487 377
60 80 78 88 84 36z m-1473 -442 c41 -16 131 -38 198 -49 l37 -6 0 -86 0 -86
-102 -106 c-56 -58 -110 -107 -119 -109 -10 -2 -48 13 -86 33 -77 42 -253 170
-253 185 0 6 51 61 113 124 123 124 134 129 212 100z m806 -96 c35 -40 71 -78
79 -84 58 -44 75 -69 76 -108 0 -23 4 -53 8 -67 7 -25 4 -29 -88 -73 -53 -25
-102 -46 -110 -46 -8 0 -39 -10 -70 -21 -30 -12 -61 -19 -68 -16 -10 3 -13 55
-13 232 l0 228 40 13 c72 22 79 19 146 -58z m-386 29 c6 0 26 3 45 6 62 12 62
12 62 -229 -1 -121 -1 -225 -1 -232 -1 -17 -189 -11 -321 10 -102 16 -110 29
-48 81 24 20 71 63 106 95 l63 59 -2 100 c-1 56 2 106 6 112 4 8 20 9 43 5 20
-4 42 -7 47 -7z"/>
<path d="M2180 2551 c-36 -9 -79 -26 -97 -39 -81 -58 -143 -166 -143 -251 0
-140 118 -279 252 -296 97 -12 152 1 221 54 147 111 172 303 55 431 -44 48
-103 87 -149 98 -26 7 -53 14 -60 16 -8 2 -43 -3 -79 -13z m138 -120 c83 -42
118 -104 110 -195 -3 -37 -12 -63 -31 -88 -31 -40 -113 -88 -150 -88 -79 0
-181 87 -192 165 -13 81 34 168 110 208 41 22 108 21 153 -2z"/>
</g>
</svg>
